PathFileType	4	(X/Y/Z)	Walk3.trc
DataRate	CameraRate	NumFrames	NumMarkers	Units	OrigDataRate	OrigDataStartFrame	OrigNumFrames
200.000000	200.000000	5	59	mm	200.000000	234	545
Frame#	Times		LBHD		C7		T10		RBack		LPSI		RPSI		RCAR		LElbowM		RElbowM		LUA1		LLFC		LFHD		RFA1		LWRU		LCAR		RTB1		LACR1		RUA1		CLAV		RTH2		RTH3		LWRR		RToe		RACR1		RTB3		RTB4		RWRU		RCAL		RMT5		RBHD		RTH4		RLFC		LFA1		RTH1		RWRR		RMT1		RFHD		LTH1		STRN		LTH3		LTH4		RTB2		RElbow		RMMAL		LElbow		LTH2		LTB3		RASI		LASI		LCAL		LMT1		LTB2		LLMAL		RLMAL		LMT5		LToe		LTB1		LMMAL		LTB4
			X1	Y1	Z1	X2	Y2	Z2	X3	Y3	Z3	X4	Y4	Z4	X5	Y5	Z5	X6	Y6	Z6	X7	Y7	Z7	X8	Y8	Z8	X9	Y9	Z9	X10	Y10	Z10	X11	Y11	Z11	X12	Y12	Z12	X13	Y13	Z13	X14	Y14	Z14	X15	Y15	Z15	X16	Y16	Z16	X17	Y17	Z17	X18	Y18	Z18	X19	Y19	Z19	X20	Y20	Z20	X21	Y21	Z21	X22	Y22	Z22	X23	Y23	Z23	X24	Y24	Z24	X25	Y25	Z25	X26	Y26	Z26	X27	Y27	Z27	X28	Y28	Z28	X29	Y29	Z29	X30	Y30	Z30	X31	Y31	Z31	X32	Y32	Z32	X33	Y33	Z33	X34	Y34	Z34	X35	Y35	Z35	X36	Y36	Z36	X37	Y37	Z37	X38	Y38	Z38	X39	Y39	Z39	X40	Y40	Z40	X41	Y41	Z41	X42	Y42	Z42	X43	Y43	Z43	X44	Y44	Z44	X45	Y45	Z45	X46	Y46	Z46	X47	Y47	Z47	X48	Y48	Z48	X49	Y49	Z49	X50	Y50	Z50	X51	Y51	Z51	X52	Y52	Z52	X53	Y53	Z53	X54	Y54	Z54	X55	Y55	Z55	X56	Y56	Z56	X57	Y57	Z57	X58	Y58	Z58	X59	Y59	Z59

234	1.17	-823.23	1470	-61.828	-854.71	1332.4	6.4788	-881.03	1062.8	-6.6813	-878.89	1229.9	135.01	-891.12	866.44	-53.256	-904.61	886.19	43.254	-575	766.91	293.99	-853.8	956.7	-203.25	-781.37	925.94	206.07	-781.83	1108.7	-246.17	-593.08	450.19	-130.19	-650.93	1464.9	-39.648	-698.06	858.5	285.36	-751.02	759.22	-309.57	-696.01	732.4	-328.35	-866.63	320.77	48.039	-769.64	1276	-157.61	-755.49	1117.6	240.67	-727.3	1256.4	11.548	-741.72	625.5	157.52	-835.99	543.95	160.1	-685.48	767.94	-277.23	-850.96	25.137	1.6288	-782.6	1270.6	160.82	-932.76	148.02	37.173	-905.3	237.22	46.488	-634.14	769.09	270.13	-1053.8	66.812	65.396	-919.32	36.689	62.454	-825.42	1475.4	61.499	-813.22	632.68	187.74	-847.8	444.05	137.63	-792.25	874.29	-299.34	-789.75	714.6	216.92	-575.49	807.2	244.28	-907.23	45.845	3.4802	-646.53	1472.3	38.065	-697.07	722.36	-188.13	-663.76	1152.1	9.7406	-610.45	560.31	-140.03	-651.17	643.27	-164.76	-921.35	239.13	115.69	-748.99	975.73	281.93	-993.46	89.915	2.5237	-828.25	995.01	-269.61	-600.29	683.2	-129.24	-472.99	183.54	-42.786	-700.96	882.33	145.84	-683.08	844.98	-152.18	-516.75	27.795	-42.625	-374.9	89.396	-42.973	-528.86	260.06	-114.93	-486.37	73.798	-85.936	-985.68	79.914	87.8	-391.64	66.186	-95.419	-325.4	89.151	-58.462	-522.74	359.11	-50.706	-467.64	85.305	-9.5829	-506.53	268.39	-47.645
235	1.175	-817.86	1469.6	-62.709	-849.3	1331.9	5.5798	-875.09	1062.2	-7.1313	-873.27	1229.4	134.25	-885.12	866.25	-53.706	-898.71	885.86	42.816	-569.39	766.58	293.27	-848.35	956.02	-203.58	-775.67	925.72	205.23	-776.45	1108	-246.85	-586.88	449.99	-129.82	-645.55	1464.5	-40.408	-692.41	858.19	284.53	-746.11	758.43	-310.15	-691.19	731.56	-329.12	-863.26	320.34	47.654	-764.21	1275.3	-158.51	-749.72	1117.3	239.87	-721.71	1256	10.688	-736.95	624.67	157.53	-831.49	543.47	159.86	-680.45	767.09	-278.04	-850.95	25.132	1.5021	-777.03	1270.4	160.05	-931.33	148.35	36.896	-902.88	237.26	46.135	-628.47	768.75	269.39	-1053.2	68.581	65.256	-919.09	36.913	62.285	-820.12	1475	60.598	-808.57	632.14	187.51	-843.44	443.57	137.25	-787.21	873.55	-299.85	-785.06	714.05	216.68	-569.81	806.84	243.59	-906.96	45.985	3.2821	-641.2	1471.9	37.318	-690.69	722.22	-187.92	-658.01	1151.9	8.8701	-604.18	560.17	-139.65	-644.86	643.11	-164.46	-918.87	239.27	115.28	-743.25	975.47	281.12	-992.67	90.936	2.3466	-823	994.31	-270.05	-593.91	683.06	-129.1	-469.16	182.33	-42.193	-689.63	882.54	145.2	-676.86	844.17	-151.98	-514.52	27.626	-42.578	-371.92	86.923	-41.903	-524.28	259.29	-114.39	-483.44	72.911	-85.533	-985.19	79.952	86.113	-388.8	64.102	-94.506	-322.23	85.815	-57.063	-517.47	358.25	-50.226	-464.9	84.013	-9.0699	-501.95	267.44	-47.114
236	1.18	-812.48	1469.3	-63.609	-843.87	1331.4	4.6716	-869.11	1061.7	-7.5475	-867.6	1229	133.48	-879.1	866.14	-54.129	-892.79	885.58	42.413	-563.88	766.25	292.57	-842.89	955.38	-203.91	-770.01	925.57	204.39	-771.05	1107.3	-247.52	-580.7	449.86	-129.47	-640.17	1464.2	-41.186	-686.81	857.92	283.71	-741.17	757.68	-310.7	-686.33	730.77	-329.87	-859.8	319.96	47.291	-758.78	1274.8	-159.42	-743.94	1117.1	239.06	-716.1	1255.8	9.8094	-732.06	623.89	157.49	-826.84	543.02	159.63	-675.38	766.31	-278.81	-850.95	25.124	1.3716	-771.41	1270.2	159.27	-929.82	148.77	36.666	-900.37	237.36	45.821	-622.89	768.43	268.66	-1052.6	70.486	65.173	-918.84	37.148	62.158	-814.82	1474.6	59.678	-803.8	631.66	187.28	-838.93	443.12	136.89	-782.16	872.85	-300.34	-780.24	713.55	216.45	-564.21	806.49	242.9	-906.66	46.144	3.1103	-635.86	1471.6	36.551	-684.15	722.23	-187.7	-652.24	1151.7	7.9652	-597.88	560.13	-139.26	-638.45	643.08	-164.13	-916.28	239.48	114.92	-737.52	975.28	280.3	-991.81	92.053	2.2257	-817.73	993.64	-270.47	-587.45	683.01	-128.86	-465.56	181.11	-41.619	-678.31	882.76	144.57	-670.61	843.48	-151.78	-512.7	27.542	-42.54	-369.28	84.319	-40.807	-519.89	258.56	-113.86	-480.87	72.043	-85.134	-984.63	80.006	84.365	-386.34	61.898	-93.562	-319.39	82.267	-55.619	-512.29	357.43	-49.782	-462.49	82.718	-8.563	-497.52	266.51	-46.607
237	1.185	-807.1	1469	-64.527	-838.42	1331	3.7595	-863.09	1061.2	-7.9286	-861.89	1228.8	132.71	-873.06	866.09	-54.525	-886.83	885.37	42.043	-558.46	765.94	291.88	-837.41	954.79	-204.24	-764.39	925.51	203.55	-765.64	1106.7	-248.2	-574.56	449.81	-129.13	-634.78	1464	-41.98	-681.28	857.71	282.88	-736.2	756.97	-311.22	-681.46	730.03	-330.6	-856.23	319.64	46.955	-753.34	1274.3	-160.35	-738.15	1117	238.25	-710.45	1255.6	8.9153	-727.05	623.14	157.4	-822.05	542.62	159.4	-670.28	765.6	-279.57	-850.97	25.114	1.2371	-765.73	1270.2	158.46	-928.22	149.27	36.485	-897.76	237.54	45.547	-617.39	768.14	267.93	-1051.8	72.536	65.146	-918.54	37.396	62.071	-809.52	1474.3	58.742	-798.9	631.22	187.06	-834.28	442.72	136.57	-777.09	872.19	-300.81	-775.3	713.11	216.22	-558.68	806.14	242.21	-906.34	46.322	2.9649	-630.51	1471.3	35.763	-677.48	722.39	-187.46	-646.43	1151.7	7.031	-591.56	560.18	-138.89	-631.97	643.18	-163.79	-913.57	239.77	114.61	-731.81	975.16	279.48	-990.87	93.272	2.161	-812.44	993.01	-270.9	-580.94	683.04	-128.54	-462.18	179.94	-41.067	-667.02	882.99	143.95	-664.35	842.91	-151.61	-511.21	27.548	-42.52	-366.93	81.636	-39.695	-515.68	257.88	-113.34	-478.6	71.222	-84.749	-983.99	80.122	82.62	-384.18	59.626	-92.601	-316.85	78.578	-54.136	-507.19	356.66	-49.37	-460.36	81.455	-8.0681	-493.24	265.64	-46.128
238	1.19	-801.7	1468.8	-65.458	-832.93	1330.6	2.8493	-857.04	1060.8	-8.274	-856.14	1228.5	131.94	-867.01	866.12	-54.896	-880.85	885.23	41.704	-553.13	765.64	291.2	-831.92	954.27	-204.57	-758.8	925.53	202.7	-760.23	1106.2	-248.88	-568.49	449.85	-128.83	-629.39	1463.9	-42.788	-675.8	857.55	282.07	-731.22	756.3	-311.7	-676.56	729.34	-331.3	-852.54	319.39	46.647	-747.9	1273.8	-161.28	-732.36	1117	237.45	-704.78	1255.5	8.0081	-721.91	622.46	157.27	-817.1	542.27	159.17	-665.14	764.95	-280.3	-851.01	25.1	1.0986	-760	1270.2	157.64	-926.53	149.87	36.353	-895.04	237.8	45.318	-611.98	767.89	267.21	-1051	74.742	65.166	-918.2	37.659	62.021	-804.2	1474.1	57.793	-793.86	630.85	186.84	-829.46	442.37	136.28	-772	871.58	-301.26	-770.24	712.72	215.98	-553.22	805.8	241.53	-905.98	46.518	2.8448	-625.16	1471.2	34.958	-670.68	722.72	-187.23	-640.59	1151.7	6.0722	-585.26	560.32	-138.54	-625.43	643.4	-163.44	-910.73	240.13	114.37	-726.12	975.11	278.65	-989.82	94.6	2.1513	-807.11	992.45	-271.31	-574.38	683.15	-128.12	-458.97	178.82	-40.543	-655.79	883.24	143.33	-658.08	842.49	-151.47	-509.98	27.644	-42.523	-364.83	78.925	-38.575	-511.6	257.29	-112.83	-476.56	70.471	-84.385	-983.26	80.351	80.948	-382.28	57.338	-91.632	-314.55	74.815	-52.621	-502.18	355.98	-48.99	-458.45	80.256	-7.5911	-489.09	264.84	-45.679
